<svg width="33" height="33" viewBox="0 0 33 33" fill="none" xmlns="http://www.w3.org/2000/svg">
<rect width="33" height="33" rx="8" fill="#07AF87"/>
<path d="M17.7368 6.73684C17.7368 6.2762 17.5539 5.83443 17.2281 5.50871C16.9024 5.18299 16.4606 5 16 5C15.5394 5 15.0976 5.18299 14.7719 5.50871C14.4461 5.83443 14.2632 6.2762 14.2632 6.73684V14.2632H6.73684C6.2762 14.2632 5.83443 14.4461 5.50871 14.7719C5.18299 15.0976 5 15.5394 5 16C5 16.4606 5.18299 16.9024 5.50871 17.2281C5.83443 17.5539 6.2762 17.7368 6.73684 17.7368H14.2632V25.2632C14.2632 25.7238 14.4461 26.1656 14.7719 26.4913C15.0976 26.817 15.5394 27 16 27C16.4606 27 16.9024 26.817 17.2281 26.4913C17.5539 26.1656 17.7368 25.7238 17.7368 25.2632V17.7368H25.2632C25.7238 17.7368 26.1656 17.5539 26.4913 17.2281C26.817 16.9024 27 16.4606 27 16C27 15.5394 26.817 15.0976 26.4913 14.7719C26.1656 14.4461 25.7238 14.2632 25.2632 14.2632H17.7368V6.73684Z" fill="white"/>
</svg>
