<svg width="25" height="25" viewBox="0 0 25 25" fill="none" xmlns="http://www.w3.org/2000/svg">
<path d="M8.27022 2.55623C7.9773 2.84925 7.81274 3.2466 7.81274 3.66092C7.81274 4.07524 7.9773 4.4726 8.27022 4.76561L16.0046 12.5L8.27022 20.2344C7.9856 20.5291 7.82811 20.9237 7.83167 21.3334C7.83523 21.7431 7.99956 22.135 8.28926 22.4247C8.57896 22.7144 8.97085 22.8787 9.38053 22.8823C9.79022 22.8858 10.1849 22.7284 10.4796 22.4437L19.3187 13.6047C19.6116 13.3117 19.7761 12.9143 19.7761 12.5C19.7761 12.0857 19.6116 11.6883 19.3187 11.3953L10.4796 2.55623C10.1866 2.26331 9.78923 2.09875 9.37491 2.09875C8.96059 2.09875 8.56324 2.26331 8.27022 2.55623Z" fill="black"/>
</svg>
