<svg width="25" height="25" viewBox="0 0 25 25" fill="none" xmlns="http://www.w3.org/2000/svg">
<path d="M22.4438 8.27035C22.1508 7.97742 21.7534 7.81287 21.3391 7.81287C20.9248 7.81287 20.5274 7.97742 20.2344 8.27035L12.5 16.0047L4.76564 8.27034C4.47095 7.98572 4.07626 7.82823 3.66657 7.83179C3.25689 7.83535 2.865 7.99968 2.5753 8.28938C2.2856 8.57908 2.12127 8.97097 2.11771 9.38065C2.11415 9.79034 2.27164 10.185 2.55626 10.4797L11.3953 19.3188C11.6883 19.6117 12.0857 19.7763 12.5 19.7763C12.9143 19.7763 13.3117 19.6117 13.6047 19.3188L22.4438 10.4797C22.7367 10.1867 22.9012 9.78935 22.9012 9.37503C22.9012 8.96071 22.7367 8.56336 22.4438 8.27035Z" fill="black"/>
</svg>
