<svg width="100" height="111" viewBox="0 0 100 111" fill="none" xmlns="http://www.w3.org/2000/svg">
<g filter="url(#filter0_d_105_2783)">
<circle cx="50" cy="46" r="35" fill="#FFC656"/>
</g>
<path d="M59.1936 61.5089C55.2874 57.6026 57.0061 59.3214 61.1468 55.1808C65.2874 51.0401 63.5686 49.2433 67.4749 53.2276C71.3811 57.1339 71.5374 60.962 69.1936 63.3058C66.928 65.5714 63.0999 65.4151 59.1936 61.5089Z" fill="#FF717F"/>
<path d="M62.0061 54.3214L67.3186 61.3527L60.3655 56.0402L62.0061 54.3214Z" fill="#E2596C"/>
<path d="M46.8256 39.3333C45.0774 34.4762 42.5011 32 39.9248 32C37.3485 32 34.7722 34.4762 33.024 39.3333C32.84 39.8095 33.7601 40.6667 34.2201 40.1905C35.8763 38.381 37.9006 37.619 39.9248 37.619C41.9491 37.619 43.9733 38.381 45.6295 40.1905C46.1816 40.6667 47.0096 39.8095 46.8256 39.3333ZM66.976 39.3333C65.2278 34.4762 62.6515 32 60.0752 32C57.4989 32 54.9226 34.4762 53.1744 39.3333C52.9904 39.8095 53.9105 40.6667 54.3705 40.1905C56.0267 38.381 58.0509 37.619 60.0752 37.619C62.0994 37.619 64.1237 38.381 65.7799 40.1905C66.2399 40.6667 67.16 39.8095 66.976 39.3333ZM64.8597 47.0476C60.9033 52.8571 56.1187 54.2857 50.046 54.2857C43.9733 54.2857 39.1887 52.8571 35.2323 47.0476C34.6802 46.2857 33.208 46.7619 33.5761 47.9048C35.6923 55.5238 42.7771 60 50.138 60C57.4989 60 64.5837 55.5238 66.7 47.9048C66.884 46.7619 65.4118 46.2857 64.8597 47.0476Z" fill="#713737"/>
<path d="M30.1548 100.34H24.5948L23.6748 103H20.7348L25.7548 89.02H29.0148L34.0348 103H31.0748L30.1548 100.34ZM29.3948 98.1L27.3748 92.26L25.3548 98.1H29.3948ZM39.1713 94.22V99.58C39.1713 99.9533 39.2579 100.227 39.4313 100.4C39.6179 100.56 39.9246 100.64 40.3513 100.64H41.6513V103H39.8913C37.5313 103 36.3513 101.853 36.3513 99.56V94.22H35.0313V91.92H36.3513V89.18H39.1713V91.92H41.6513V94.22H39.1713ZM53.9652 97.22C53.9652 97.62 53.9385 97.98 53.8852 98.3H45.7852C45.8518 99.1 46.1318 99.7267 46.6252 100.18C47.1185 100.633 47.7252 100.86 48.4452 100.86C49.4852 100.86 50.2252 100.413 50.6652 99.52H53.6852C53.3652 100.587 52.7518 101.467 51.8452 102.16C50.9385 102.84 49.8252 103.18 48.5052 103.18C47.4385 103.18 46.4785 102.947 45.6252 102.48C44.7852 102 44.1252 101.327 43.6452 100.46C43.1785 99.5933 42.9452 98.5933 42.9452 97.46C42.9452 96.3133 43.1785 95.3067 43.6452 94.44C44.1118 93.5733 44.7652 92.9067 45.6052 92.44C46.4452 91.9733 47.4118 91.74 48.5052 91.74C49.5585 91.74 50.4985 91.9667 51.3252 92.42C52.1652 92.8733 52.8118 93.52 53.2652 94.36C53.7318 95.1867 53.9652 96.14 53.9652 97.22ZM51.0652 96.42C51.0518 95.7 50.7918 95.1267 50.2852 94.7C49.7785 94.26 49.1585 94.04 48.4252 94.04C47.7318 94.04 47.1452 94.2533 46.6652 94.68C46.1985 95.0933 45.9118 95.6733 45.8052 96.42H51.0652ZM62.1945 90.6C61.7012 90.6 61.2879 90.4467 60.9545 90.14C60.6345 89.82 60.4745 89.4267 60.4745 88.96C60.4745 88.4933 60.6345 88.1067 60.9545 87.8C61.2879 87.48 61.7012 87.32 62.1945 87.32C62.6879 87.32 63.0945 87.48 63.4145 87.8C63.7479 88.1067 63.9145 88.4933 63.9145 88.96C63.9145 89.4267 63.7479 89.82 63.4145 90.14C63.0945 90.4467 62.6879 90.6 62.1945 90.6ZM63.5745 91.92V103H60.7745V91.92H63.5745ZM69.6009 94.22V99.58C69.6009 99.9533 69.6876 100.227 69.8609 100.4C70.0476 100.56 70.3543 100.64 70.7809 100.64H72.0809V103H70.3209C67.9609 103 66.7809 101.853 66.7809 99.56V94.22H65.4609V91.92H66.7809V89.18H69.6009V91.92H72.0809V94.22H69.6009ZM77.7148 88.8L77.3948 98.46H75.0348L74.6948 88.8H77.7148ZM76.2748 103.14C75.7682 103.14 75.3482 102.987 75.0148 102.68C74.6948 102.36 74.5348 101.967 74.5348 101.5C74.5348 101.033 74.6948 100.647 75.0148 100.34C75.3482 100.02 75.7682 99.86 76.2748 99.86C76.7682 99.86 77.1748 100.02 77.4948 100.34C77.8148 100.647 77.9748 101.033 77.9748 101.5C77.9748 101.967 77.8148 102.36 77.4948 102.68C77.1748 102.987 76.7682 103.14 76.2748 103.14Z" fill="black"/>
<defs>
<filter id="filter0_d_105_2783" x="0" y="0" width="100" height="100" filterUnits="userSpaceOnUse" color-interpolation-filters="sRGB">
<feFlood flood-opacity="0" result="BackgroundImageFix"/>
<feColorMatrix in="SourceAlpha" type="matrix" values="0 0 0 0 0 0 0 0 0 0 0 0 0 0 0 0 0 0 127 0" result="hardAlpha"/>
<feOffset dy="4"/>
<feGaussianBlur stdDeviation="7.5"/>
<feComposite in2="hardAlpha" operator="out"/>
<feColorMatrix type="matrix" values="0 0 0 0 0 0 0 0 0 0 0 0 0 0 0 0 0 0 0.25 0"/>
<feBlend mode="normal" in2="BackgroundImageFix" result="effect1_dropShadow_105_2783"/>
<feBlend mode="normal" in="SourceGraphic" in2="effect1_dropShadow_105_2783" result="shape"/>
</filter>
</defs>
</svg>
