<svg width="17" height="30" viewBox="0 0 17 30" fill="none" xmlns="http://www.w3.org/2000/svg">
<path d="M15.7523 1.47648C16.1507 1.87498 16.3745 2.41538 16.3745 2.97886C16.3745 3.54233 16.1507 4.08273 15.7523 4.48123L5.23354 15L15.7523 25.5187C16.1394 25.9195 16.3536 26.4563 16.3487 27.0135C16.3439 27.5706 16.1204 28.1036 15.7264 28.4976C15.3324 28.8916 14.7994 29.1151 14.2423 29.1199C13.6851 29.1248 13.1483 28.9106 12.7475 28.5235L0.726419 16.5024C0.328043 16.1039 0.104248 15.5635 0.104248 15C0.104248 14.4365 0.328043 13.8961 0.726419 13.4976L12.7475 1.47648C13.146 1.0781 13.6864 0.854309 14.2499 0.854309C14.8134 0.854309 15.3538 1.0781 15.7523 1.47648Z" fill="#07AF87"/>
</svg>
