<svg width="18" height="18" viewBox="0 0 18 18" fill="none" xmlns="http://www.w3.org/2000/svg">
<circle cx="9" cy="9" r="9" fill="#D9D9D9"/>
<path d="M10.5385 5.25H12.3846C12.7538 5.25 13 5.5 13 5.875V6.5H5V5.875C5 5.5 5.30769 5.25 5.61538 5.25H7.46154C7.58462 4.5625 8.26154 4 9 4C9.73846 4 10.4154 4.5625 10.5385 5.25ZM8.07692 5.25H9.92308C9.8 4.875 9.36923 4.625 9 4.625C8.63077 4.625 8.2 4.875 8.07692 5.25ZM5.61538 7.125H12.3846L11.8308 13.4375C11.8308 13.75 11.5231 14 11.2154 14H6.78462C6.47692 14 6.23077 13.75 6.16923 13.4375L5.61538 7.125Z" fill="#7C7C7C"/>
</svg>
