<svg width="100" height="111" viewBox="0 0 100 111" fill="none" xmlns="http://www.w3.org/2000/svg">
<g filter="url(#filter0_d_105_2785)">
<circle cx="50" cy="46" r="35" fill="#14B9FF"/>
</g>
<path d="M37.6153 62.6923C36.4307 62.6923 35.417 62.2709 34.5741 61.428C33.7298 60.5837 33.3076 59.5692 33.3076 58.3846V39C33.3076 38.3179 33.4605 37.6718 33.7664 37.0615C34.0708 36.4513 34.4922 35.9487 35.0307 35.5538L47.9538 25.8615C48.7076 25.2872 49.5692 25 50.5384 25C51.5076 25 52.3692 25.2872 53.123 25.8615L66.0461 35.5538C66.5845 35.9487 67.0067 36.4513 67.3125 37.0615C67.617 37.6718 67.7692 38.3179 67.7692 39V58.3846C67.7692 59.5692 67.3477 60.5837 66.5048 61.428C65.6605 62.2709 64.6461 62.6923 63.4615 62.6923H37.6153ZM46.2307 47.6154V55.1538C46.2307 55.441 46.3384 55.6923 46.5538 55.9077C46.7692 56.1231 47.0204 56.2308 47.3076 56.2308C47.5948 56.2308 47.8461 56.1231 48.0615 55.9077C48.2768 55.6923 48.3845 55.441 48.3845 55.1538V47.6154C49.282 47.6154 50.0444 47.3009 50.6719 46.672C51.3008 46.0445 51.6153 45.282 51.6153 44.3846V39C51.6153 38.7128 51.5076 38.4615 51.2922 38.2462C51.0768 38.0308 50.8256 37.9231 50.5384 37.9231C50.2512 37.9231 49.9999 38.0308 49.7845 38.2462C49.5692 38.4615 49.4615 38.7128 49.4615 39V44.3846H48.3845V39C48.3845 38.7128 48.2768 38.4615 48.0615 38.2462C47.8461 38.0308 47.5948 37.9231 47.3076 37.9231C47.0204 37.9231 46.7692 38.0308 46.5538 38.2462C46.3384 38.4615 46.2307 38.7128 46.2307 39V44.3846H45.1538V39C45.1538 38.7128 45.0461 38.4615 44.8307 38.2462C44.6153 38.0308 44.364 37.9231 44.0768 37.9231C43.7897 37.9231 43.5384 38.0308 43.323 38.2462C43.1076 38.4615 42.9999 38.7128 42.9999 39V44.3846C42.9999 45.282 43.3144 46.0445 43.9433 46.672C44.5708 47.3009 45.3333 47.6154 46.2307 47.6154ZM55.923 56.2308C56.2102 56.2308 56.4615 56.1231 56.6768 55.9077C56.8922 55.6923 56.9999 55.441 56.9999 55.1538V39.2154C56.9999 38.9282 56.8922 38.6769 56.6768 38.4615C56.4615 38.2462 56.2102 38.1385 55.923 38.1385C54.9179 38.1385 54.1281 38.5513 53.5538 39.3769C52.9794 40.2026 52.6922 41.1538 52.6922 42.2308V47.6154C52.6922 47.9026 52.7999 48.1538 53.0153 48.3692C53.2307 48.5846 53.482 48.6923 53.7692 48.6923H54.8461V55.1538C54.8461 55.441 54.9538 55.6923 55.1692 55.9077C55.3845 56.1231 55.6358 56.2308 55.923 56.2308Z" fill="white"/>
<path d="M19.2776 89.04C20.7442 89.04 22.0309 89.3267 23.1376 89.9C24.2576 90.4733 25.1176 91.2933 25.7176 92.36C26.3309 93.4133 26.6376 94.64 26.6376 96.04C26.6376 97.44 26.3309 98.6667 25.7176 99.72C25.1176 100.76 24.2576 101.567 23.1376 102.14C22.0309 102.713 20.7442 103 19.2776 103H14.3976V89.04H19.2776ZM19.1776 100.62C20.6442 100.62 21.7776 100.22 22.5776 99.42C23.3776 98.62 23.7776 97.4933 23.7776 96.04C23.7776 94.5867 23.3776 93.4533 22.5776 92.64C21.7776 91.8133 20.6442 91.4 19.1776 91.4H17.1976V100.62H19.1776ZM33.6535 103.18C32.5868 103.18 31.6268 102.947 30.7735 102.48C29.9202 102 29.2468 101.327 28.7535 100.46C28.2735 99.5933 28.0335 98.5933 28.0335 97.46C28.0335 96.3267 28.2802 95.3267 28.7735 94.46C29.2802 93.5933 29.9668 92.9267 30.8335 92.46C31.7002 91.98 32.6668 91.74 33.7335 91.74C34.8002 91.74 35.7668 91.98 36.6335 92.46C37.5002 92.9267 38.1802 93.5933 38.6735 94.46C39.1802 95.3267 39.4335 96.3267 39.4335 97.46C39.4335 98.5933 39.1735 99.5933 38.6535 100.46C38.1468 101.327 37.4535 102 36.5735 102.48C35.7068 102.947 34.7335 103.18 33.6535 103.18ZM33.6535 100.74C34.1602 100.74 34.6335 100.62 35.0735 100.38C35.5268 100.127 35.8868 99.7533 36.1535 99.26C36.4202 98.7667 36.5535 98.1667 36.5535 97.46C36.5535 96.4067 36.2735 95.6 35.7135 95.04C35.1668 94.4667 34.4935 94.18 33.6935 94.18C32.8935 94.18 32.2202 94.4667 31.6735 95.04C31.1402 95.6 30.8735 96.4067 30.8735 97.46C30.8735 98.5133 31.1335 99.3267 31.6535 99.9C32.1868 100.46 32.8535 100.74 33.6535 100.74ZM47.6274 91.76C48.9474 91.76 50.0141 92.18 50.8274 93.02C51.6408 93.8467 52.0474 95.0067 52.0474 96.5V103H49.2474V96.88C49.2474 96 49.0274 95.3267 48.5874 94.86C48.1474 94.38 47.5474 94.14 46.7874 94.14C46.0141 94.14 45.4008 94.38 44.9474 94.86C44.5074 95.3267 44.2874 96 44.2874 96.88V103H41.4874V91.92H44.2874V93.3C44.6608 92.82 45.1341 92.4467 45.7074 92.18C46.2941 91.9 46.9341 91.76 47.6274 91.76ZM53.9901 97.42C53.9901 96.3 54.2101 95.3067 54.6501 94.44C55.1034 93.5733 55.7101 92.9067 56.4701 92.44C57.2434 91.9733 58.1034 91.74 59.0501 91.74C59.8767 91.74 60.5967 91.9067 61.2101 92.24C61.8367 92.5733 62.3367 92.9933 62.7101 93.5V91.92H65.5301V103H62.7101V101.38C62.3501 101.9 61.8501 102.333 61.2101 102.68C60.5834 103.013 59.8567 103.18 59.0301 103.18C58.0967 103.18 57.2434 102.94 56.4701 102.46C55.7101 101.98 55.1034 101.307 54.6501 100.44C54.2101 99.56 53.9901 98.5533 53.9901 97.42ZM62.7101 97.46C62.7101 96.78 62.5767 96.2 62.3101 95.72C62.0434 95.2267 61.6834 94.8533 61.2301 94.6C60.7767 94.3333 60.2901 94.2 59.7701 94.2C59.2501 94.2 58.7701 94.3267 58.3301 94.58C57.8901 94.8333 57.5301 95.2067 57.2501 95.7C56.9834 96.18 56.8501 96.7533 56.8501 97.42C56.8501 98.0867 56.9834 98.6733 57.2501 99.18C57.5301 99.6733 57.8901 100.053 58.3301 100.32C58.7834 100.587 59.2634 100.72 59.7701 100.72C60.2901 100.72 60.7767 100.593 61.2301 100.34C61.6834 100.073 62.0434 99.7 62.3101 99.22C62.5767 98.7267 62.7101 98.14 62.7101 97.46ZM71.5248 94.22V99.58C71.5248 99.9533 71.6114 100.227 71.7848 100.4C71.9714 100.56 72.2781 100.64 72.7048 100.64H74.0048V103H72.2448C69.8848 103 68.7048 101.853 68.7048 99.56V94.22H67.3848V91.92H68.7048V89.18H71.5248V91.92H74.0048V94.22H71.5248ZM86.3187 97.22C86.3187 97.62 86.292 97.98 86.2387 98.3H78.1387C78.2053 99.1 78.4853 99.7267 78.9787 100.18C79.472 100.633 80.0787 100.86 80.7987 100.86C81.8387 100.86 82.5787 100.413 83.0187 99.52H86.0387C85.7187 100.587 85.1053 101.467 84.1987 102.16C83.292 102.84 82.1787 103.18 80.8587 103.18C79.792 103.18 78.832 102.947 77.9787 102.48C77.1387 102 76.4787 101.327 75.9987 100.46C75.532 99.5933 75.2987 98.5933 75.2987 97.46C75.2987 96.3133 75.532 95.3067 75.9987 94.44C76.4653 93.5733 77.1187 92.9067 77.9587 92.44C78.7987 91.9733 79.7653 91.74 80.8587 91.74C81.912 91.74 82.852 91.9667 83.6787 92.42C84.5187 92.8733 85.1653 93.52 85.6187 94.36C86.0853 95.1867 86.3187 96.14 86.3187 97.22ZM83.4187 96.42C83.4053 95.7 83.1453 95.1267 82.6387 94.7C82.132 94.26 81.512 94.04 80.7787 94.04C80.0853 94.04 79.4987 94.2533 79.0187 94.68C78.552 95.0933 78.2653 95.6733 78.1587 96.42H83.4187Z" fill="black"/>
<defs>
<filter id="filter0_d_105_2785" x="0" y="0" width="100" height="100" filterUnits="userSpaceOnUse" color-interpolation-filters="sRGB">
<feFlood flood-opacity="0" result="BackgroundImageFix"/>
<feColorMatrix in="SourceAlpha" type="matrix" values="0 0 0 0 0 0 0 0 0 0 0 0 0 0 0 0 0 0 127 0" result="hardAlpha"/>
<feOffset dy="4"/>
<feGaussianBlur stdDeviation="7.5"/>
<feComposite in2="hardAlpha" operator="out"/>
<feColorMatrix type="matrix" values="0 0 0 0 0 0 0 0 0 0 0 0 0 0 0 0 0 0 0.25 0"/>
<feBlend mode="normal" in2="BackgroundImageFix" result="effect1_dropShadow_105_2785"/>
<feBlend mode="normal" in="SourceGraphic" in2="effect1_dropShadow_105_2785" result="shape"/>
</filter>
</defs>
</svg>
