<svg width="18" height="18" viewBox="0 0 18 18" fill="none" xmlns="http://www.w3.org/2000/svg">
<circle cx="9" cy="9" r="9" fill="#D9D9D9"/>
<g clip-path="url(#clip0_164_140)">
<path d="M5.17233 10.0889L4.64456 12.5944C4.62635 12.686 4.62697 12.7809 4.64638 12.8722C4.66579 12.9635 4.7035 13.0489 4.75674 13.1221C4.80998 13.1953 4.87742 13.2545 4.95413 13.2954C5.03084 13.3363 5.11488 13.3578 5.20011 13.3583C5.23982 13.3627 5.27984 13.3627 5.31956 13.3583L7.61122 12.7778L12.0112 7.95611L9.55567 5.26111L5.17233 10.0889Z" fill="#7C7C7C"/>
<path d="M13.3946 5.5422L11.7557 3.73942C11.6479 3.6215 11.5021 3.5553 11.3501 3.5553C11.1981 3.5553 11.0523 3.6215 10.9446 3.73942L10.0334 4.74164L12.4862 7.4397L13.3973 6.43748C13.4507 6.37853 13.4929 6.30859 13.5216 6.23167C13.5503 6.15475 13.565 6.07236 13.5647 5.9892C13.5645 5.90605 13.5493 5.82377 13.5201 5.74706C13.4909 5.67036 13.4482 5.60075 13.3946 5.5422Z" fill="#7C7C7C"/>
</g>
<defs>
<clipPath id="clip0_164_140">
<rect width="10" height="11" fill="white" transform="translate(4 3)"/>
</clipPath>
</defs>
</svg>
