<svg width="24" height="24" viewBox="0 0 24 24" fill="none" xmlns="http://www.w3.org/2000/svg">
<circle cx="12" cy="12" r="12" fill="#D9D9D9"/>
<g clip-path="url(#clip0_537_150)">
<path d="M6.89648 13.4519L6.19278 16.7926C6.16851 16.9147 6.16934 17.0413 6.19522 17.163C6.2211 17.2847 6.27137 17.3986 6.34236 17.4962C6.41335 17.5938 6.50327 17.6727 6.60555 17.7272C6.70783 17.7817 6.81988 17.8104 6.93352 17.8111C6.98647 17.817 7.03983 17.817 7.09278 17.8111L10.1483 17.0371L16.015 10.6082L12.7409 7.01483L6.89648 13.4519Z" fill="#7C7C7C"/>
<path d="M17.8594 7.38962L15.6742 4.98592C15.5306 4.82868 15.3361 4.74042 15.1335 4.74042C14.9308 4.74042 14.7364 4.82868 14.5927 4.98592L13.3779 6.32221L16.6483 9.91962L17.8631 8.58332C17.9342 8.50473 17.9905 8.41148 18.0288 8.30892C18.0671 8.20636 18.0866 8.0965 18.0863 7.98563C18.086 7.87475 18.0657 7.76504 18.0268 7.66277C17.9879 7.5605 17.931 7.46768 17.8594 7.38962Z" fill="#7C7C7C"/>
</g>
<defs>
<clipPath id="clip0_537_150">
<rect width="13.3333" height="14.6667" fill="white" transform="translate(5.3335 4)"/>
</clipPath>
</defs>
</svg>
