<svg width="34" height="31" viewBox="0 0 34 31" fill="none" xmlns="http://www.w3.org/2000/svg">
<path d="M28.7942 1.58426C28.5002 1.10217 28.0855 0.703129 27.5901 0.425632C27.0948 0.148135 26.5354 0.0015445 25.9661 0H8.0339C6.8822 0 5.79815 0.606947 5.2058 1.58426L0.735951 8.94921C0.581272 9.20278 0.499678 9.49335 0.500001 9.78947C0.506591 11.3643 1.09317 12.8828 2.15 14.0609V27.7368C2.15 29.5365 3.63005 31 5.45 31H28.55C30.3699 31 31.85 29.5365 31.85 27.7368V14.0609C32.9068 12.8828 33.4934 11.3643 33.5 9.78947C33.5003 9.49335 33.4187 9.20278 33.264 8.94921L28.7942 1.58426ZM30.1736 10.199C30.0718 10.9868 29.6833 11.7109 29.0808 12.2361C28.4784 12.7612 27.7031 13.0515 26.9 13.0526C25.08 13.0526 23.6 11.5891 23.6 9.78947C23.6 9.67853 23.5588 9.58063 23.5357 9.47621L23.5686 9.46968L22.313 3.26316H25.9661L30.1736 10.199ZM15.0514 3.26316H18.947L20.2885 9.89553C20.2307 11.6446 18.782 13.0526 17 13.0526C15.218 13.0526 13.7693 11.6446 13.7116 9.89553L15.0514 3.26316ZM8.0339 3.26316H11.687L10.433 9.46968L10.466 9.47621C10.4412 9.58063 10.4 9.67853 10.4 9.78947C10.4 11.5891 8.91995 13.0526 7.1 13.0526C6.29686 13.0515 5.52162 12.7612 4.91916 12.2361C4.3167 11.7109 3.92825 10.9868 3.8264 10.199L8.0339 3.26316ZM13.7 27.7368V22.8421H20.3V27.7368H13.7ZM23.6 27.7368V22.8421C23.6 21.0425 22.1199 19.5789 20.3 19.5789H13.7C11.8801 19.5789 10.4 21.0425 10.4 22.8421V27.7368H5.45V16.0841C5.97965 16.2195 6.5258 16.3158 7.1 16.3158C8.0369 16.3163 8.9631 16.119 9.81673 15.7372C10.6704 15.3554 11.4317 14.7978 12.05 14.1017C13.2594 15.4592 15.0316 16.3158 17 16.3158C18.9685 16.3158 20.7405 15.4592 21.95 14.1017C22.5683 14.7978 23.3296 15.3554 24.1833 15.7372C25.0369 16.119 25.9631 16.3163 26.9 16.3158C27.4742 16.3158 28.0203 16.2195 28.55 16.0841V27.7368H23.6Z" fill="#46D499"/>
</svg>
