<svg width="29" height="29" viewBox="0 0 29 29" fill="none" xmlns="http://www.w3.org/2000/svg">
<path d="M26 14.5001C26 20.8513 20.8513 26.0001 14.5 26.0001C8.14873 26.0001 3 20.8513 3 14.5001C3 8.14879 8.14873 3.00006 14.5 3.00006C20.8513 3.00006 26 8.14879 26 14.5001ZM7.6 14.5001C7.6 18.3108 10.6892 21.4001 14.5 21.4001C18.3108 21.4001 21.4 18.3108 21.4 14.5001C21.4 10.6893 18.3108 7.60006 14.5 7.60006C10.6892 7.60006 7.6 10.6893 7.6 14.5001Z" fill="#D9D9D9"/>
<path d="M21.0719 8.06171C21.9793 7.17277 23.4591 7.1787 24.15 8.2446C25.1647 9.81 25.7899 11.6091 25.9557 13.4903C26.1893 16.1406 25.4968 18.7899 23.996 20.9868C22.4952 23.1837 20.2792 24.7923 17.7254 25.5385C15.1716 26.2847 12.438 26.1223 9.99054 25.0789C7.54305 24.0356 5.53303 22.1759 4.30297 19.8168C3.07291 17.4576 2.69892 14.7449 3.24471 12.1409C3.7905 9.53692 5.22231 7.20272 7.29618 5.53605C8.76821 4.35304 10.4991 3.5583 12.3311 3.20642C13.5786 2.96682 14.6075 4.03032 14.5945 5.30051C14.5815 6.5707 13.514 7.55373 12.3094 7.95703C11.5412 8.21424 10.8186 8.60662 10.1778 9.12164C8.93344 10.1216 8.07436 11.5222 7.74688 13.0846C7.41941 14.647 7.6438 16.2746 8.38184 17.6901C9.11987 19.1056 10.3259 20.2214 11.7944 20.8474C13.2629 21.4734 14.903 21.5708 16.4353 21.1231C17.9676 20.6754 19.2972 19.7103 20.1977 18.3921C21.0981 17.074 21.5137 15.4844 21.3735 13.8942C21.3013 13.0752 21.084 12.2822 20.7376 11.5498C20.1945 10.4015 20.1645 8.95066 21.0719 8.06171Z" fill="#E92C20"/>
</svg>
