<svg width="33" height="31" viewBox="0 0 33 31" fill="none" xmlns="http://www.w3.org/2000/svg">
<path d="M28.2942 1.58426C28.0002 1.10217 27.5855 0.703129 27.0901 0.425632C26.5948 0.148135 26.0354 0.0015445 25.4661 0H7.5339C6.3822 0 5.29815 0.606947 4.7058 1.58426L0.235951 8.94921C0.0812721 9.20278 -0.000321692 9.49335 9.5317e-07 9.78947C0.00659057 11.3643 0.593166 12.8828 1.65 14.0609V27.7368C1.65 29.5365 3.13005 31 4.95 31H28.05C29.8699 31 31.35 29.5365 31.35 27.7368V14.0609C32.4068 12.8828 32.9934 11.3643 33 9.78947C33.0003 9.49335 32.9187 9.20278 32.764 8.94921L28.2942 1.58426ZM29.6736 10.199C29.5718 10.9868 29.1833 11.7109 28.5808 12.2361C27.9784 12.7612 27.2031 13.0515 26.4 13.0526C24.58 13.0526 23.1 11.5891 23.1 9.78947C23.1 9.67853 23.0588 9.58063 23.0357 9.47621L23.0686 9.46968L21.813 3.26316H25.4661L29.6736 10.199ZM14.5514 3.26316H18.447L19.7885 9.89553C19.7307 11.6446 18.282 13.0526 16.5 13.0526C14.718 13.0526 13.2693 11.6446 13.2116 9.89553L14.5514 3.26316ZM7.5339 3.26316H11.187L9.933 9.46968L9.966 9.47621C9.94125 9.58063 9.9 9.67853 9.9 9.78947C9.9 11.5891 8.41995 13.0526 6.6 13.0526C5.79686 13.0515 5.02162 12.7612 4.41916 12.2361C3.8167 11.7109 3.42824 10.9868 3.3264 10.199L7.5339 3.26316ZM13.2 27.7368V22.8421H19.8V27.7368H13.2ZM23.1 27.7368V22.8421C23.1 21.0425 21.6199 19.5789 19.8 19.5789H13.2C11.3801 19.5789 9.9 21.0425 9.9 22.8421V27.7368H4.95V16.0841C5.47965 16.2195 6.0258 16.3158 6.6 16.3158C7.5369 16.3163 8.4631 16.119 9.31673 15.7372C10.1704 15.3554 10.9317 14.7978 11.55 14.1017C12.7594 15.4592 14.5316 16.3158 16.5 16.3158C18.4685 16.3158 20.2405 15.4592 21.45 14.1017C22.0683 14.7978 22.8296 15.3554 23.6833 15.7372C24.5369 16.119 25.4631 16.3163 26.4 16.3158C26.9742 16.3158 27.5203 16.2195 28.05 16.0841V27.7368H23.1Z" fill="#9F9F9F"/>
</svg>
