<svg width="24" height="24" viewBox="0 0 24 24" fill="none" xmlns="http://www.w3.org/2000/svg">
<circle cx="12" cy="12" r="12" fill="#D9D9D9"/>
<path d="M14.0512 6.99998H16.5128C17.0051 6.99998 17.3333 7.33331 17.3333 7.83331V8.66665H6.66663V7.83331C6.66663 7.33331 7.07688 6.99998 7.48714 6.99998H9.94868C10.1128 6.08331 11.0153 5.33331 12 5.33331C12.9846 5.33331 13.8871 6.08331 14.0512 6.99998ZM10.7692 6.99998H13.2307C13.0666 6.49998 12.4923 6.16665 12 6.16665C11.5077 6.16665 10.9333 6.49998 10.7692 6.99998ZM7.48714 9.49998H16.5128L15.7743 17.9166C15.7743 18.3333 15.3641 18.6666 14.9538 18.6666H9.04611C8.63586 18.6666 8.30765 18.3333 8.2256 17.9166L7.48714 9.49998Z" fill="#7C7C7C"/>
</svg>
