<svg width="100" height="111" viewBox="0 0 100 111" fill="none" xmlns="http://www.w3.org/2000/svg">
<g filter="url(#filter0_d_105_2784)">
<circle cx="50" cy="46" r="35" fill="#FC5959"/>
<path d="M56.1538 31.75H63.5385C65.0154 31.75 66 32.7 66 34.125V36.5H34V34.125C34 32.7 35.2308 31.75 36.4615 31.75H43.8462C44.3385 29.1375 47.0462 27 50 27C52.9538 27 55.6615 29.1375 56.1538 31.75ZM46.3077 31.75H53.6923C53.2 30.325 51.4769 29.375 50 29.375C48.5231 29.375 46.8 30.325 46.3077 31.75ZM36.4615 38.875H63.5385L61.3231 62.8625C61.3231 64.05 60.0923 65 58.8615 65H41.1385C39.9077 65 38.9231 64.05 38.6769 62.8625L36.4615 38.875Z" fill="white"/>
</g>
<path d="M32.2277 89.04V91.3H28.5077V103H25.7077V91.3H21.9877V89.04H32.2277ZM37.0706 93.64C37.4306 93.0533 37.8973 92.5933 38.4706 92.26C39.0573 91.9267 39.724 91.76 40.4706 91.76V94.7H39.7306C38.8506 94.7 38.184 94.9067 37.7306 95.32C37.2906 95.7333 37.0706 96.4533 37.0706 97.48V103H34.2706V91.92H37.0706V93.64ZM41.6366 97.42C41.6366 96.3 41.8566 95.3067 42.2966 94.44C42.7499 93.5733 43.3566 92.9067 44.1166 92.44C44.8899 91.9733 45.7499 91.74 46.6966 91.74C47.5232 91.74 48.2432 91.9067 48.8566 92.24C49.4832 92.5733 49.9832 92.9933 50.3566 93.5V91.92H53.1766V103H50.3566V101.38C49.9966 101.9 49.4966 102.333 48.8566 102.68C48.2299 103.013 47.5032 103.18 46.6766 103.18C45.7432 103.18 44.8899 102.94 44.1166 102.46C43.3566 101.98 42.7499 101.307 42.2966 100.44C41.8566 99.56 41.6366 98.5533 41.6366 97.42ZM50.3566 97.46C50.3566 96.78 50.2232 96.2 49.9566 95.72C49.6899 95.2267 49.3299 94.8533 48.8766 94.6C48.4232 94.3333 47.9366 94.2 47.4166 94.2C46.8966 94.2 46.4166 94.3267 45.9766 94.58C45.5366 94.8333 45.1766 95.2067 44.8966 95.7C44.6299 96.18 44.4966 96.7533 44.4966 97.42C44.4966 98.0867 44.6299 98.6733 44.8966 99.18C45.1766 99.6733 45.5366 100.053 45.9766 100.32C46.4299 100.587 46.9099 100.72 47.4166 100.72C47.9366 100.72 48.4232 100.593 48.8766 100.34C49.3299 100.073 49.6899 99.7 49.9566 99.22C50.2232 98.7267 50.3566 98.14 50.3566 97.46ZM60.1513 103.18C59.2446 103.18 58.4313 103.02 57.7113 102.7C56.9913 102.367 56.4179 101.92 55.9913 101.36C55.5779 100.8 55.3513 100.18 55.3113 99.5H58.1313C58.1846 99.9267 58.3913 100.28 58.7513 100.56C59.1246 100.84 59.5846 100.98 60.1313 100.98C60.6646 100.98 61.0779 100.873 61.3713 100.66C61.6779 100.447 61.8313 100.173 61.8313 99.84C61.8313 99.48 61.6446 99.2133 61.2713 99.04C60.9113 98.8533 60.3313 98.6533 59.5312 98.44C58.7046 98.24 58.0246 98.0333 57.4913 97.82C56.9713 97.6067 56.5179 97.28 56.1313 96.84C55.7579 96.4 55.5713 95.8067 55.5713 95.06C55.5713 94.4467 55.7446 93.8867 56.0913 93.38C56.4513 92.8733 56.9579 92.4733 57.6113 92.18C58.2779 91.8867 59.0579 91.74 59.9513 91.74C61.2713 91.74 62.3246 92.0733 63.1113 92.74C63.8979 93.3933 64.3313 94.28 64.4113 95.4H61.7313C61.6913 94.96 61.5046 94.6133 61.1713 94.36C60.8513 94.0933 60.4179 93.96 59.8713 93.96C59.3646 93.96 58.9713 94.0533 58.6913 94.24C58.4246 94.4267 58.2913 94.6867 58.2913 95.02C58.2913 95.3933 58.4779 95.68 58.8513 95.88C59.2246 96.0667 59.8046 96.26 60.5913 96.46C61.3913 96.66 62.0513 96.8667 62.5713 97.08C63.0913 97.2933 63.5379 97.6267 63.9113 98.08C64.2979 98.52 64.4979 99.1067 64.5113 99.84C64.5113 100.48 64.3313 101.053 63.9713 101.56C63.6246 102.067 63.1179 102.467 62.4513 102.76C61.7979 103.04 61.0313 103.18 60.1513 103.18ZM73.0497 91.76C73.8897 91.76 74.6364 91.9467 75.2897 92.32C75.943 92.68 76.4497 93.22 76.8097 93.94C77.183 94.6467 77.3697 95.5 77.3697 96.5V103H74.5697V96.88C74.5697 96 74.3497 95.3267 73.9097 94.86C73.4697 94.38 72.8697 94.14 72.1097 94.14C71.3364 94.14 70.723 94.38 70.2697 94.86C69.8297 95.3267 69.6097 96 69.6097 96.88V103H66.8097V88.2H69.6097V93.3C69.9697 92.82 70.4497 92.4467 71.0497 92.18C71.6497 91.9 72.3164 91.76 73.0497 91.76Z" fill="black"/>
<defs>
<filter id="filter0_d_105_2784" x="0" y="0" width="100" height="100" filterUnits="userSpaceOnUse" color-interpolation-filters="sRGB">
<feFlood flood-opacity="0" result="BackgroundImageFix"/>
<feColorMatrix in="SourceAlpha" type="matrix" values="0 0 0 0 0 0 0 0 0 0 0 0 0 0 0 0 0 0 127 0" result="hardAlpha"/>
<feOffset dy="4"/>
<feGaussianBlur stdDeviation="7.5"/>
<feComposite in2="hardAlpha" operator="out"/>
<feColorMatrix type="matrix" values="0 0 0 0 0 0 0 0 0 0 0 0 0 0 0 0 0 0 0.25 0"/>
<feBlend mode="normal" in2="BackgroundImageFix" result="effect1_dropShadow_105_2784"/>
<feBlend mode="normal" in="SourceGraphic" in2="effect1_dropShadow_105_2784" result="shape"/>
</filter>
</defs>
</svg>
