<svg width="22" height="22" viewBox="0 0 22 22" fill="none" xmlns="http://www.w3.org/2000/svg">
<circle cx="11" cy="11" r="11" fill="#FFA723"/>
<path d="M12.042 5.44207C12.042 5.16569 11.9322 4.90062 11.7368 4.70519C11.5413 4.50976 11.2763 4.39996 10.9999 4.39996C10.7235 4.39996 10.4585 4.50976 10.263 4.70519C10.0676 4.90062 9.9578 5.16569 9.9578 5.44207V9.95786H5.44201C5.16562 9.95786 4.90056 10.0677 4.70513 10.2631C4.5097 10.4585 4.3999 10.7236 4.3999 11C4.3999 11.2763 4.5097 11.5414 4.70513 11.7368C4.90056 11.9323 5.16562 12.0421 5.44201 12.0421H9.9578V16.5579C9.9578 16.8342 10.0676 17.0993 10.263 17.2947C10.4585 17.4902 10.7235 17.6 10.9999 17.6C11.2763 17.6 11.5413 17.4902 11.7368 17.2947C11.9322 17.0993 12.042 16.8342 12.042 16.5579V12.0421H16.5578C16.8342 12.0421 17.0992 11.9323 17.2947 11.7368C17.4901 11.5414 17.5999 11.2763 17.5999 11C17.5999 10.7236 17.4901 10.4585 17.2947 10.2631C17.0992 10.0677 16.8342 9.95786 16.5578 9.95786H12.042V5.44207Z" fill="white"/>
</svg>
